<svg id="_x3C_Layer_x3E_" enable-background="new 0 0 32 32" height="32" viewBox="0 0 32 32" width="32" xmlns="http://www.w3.org/2000/svg"><g id="page_x2C__document_x2C__emoji_x2C__No_results_x2C__empty_page"><g id="XMLID_1521_"><g id="XMLID_1540_"><g id="XMLID_1632_"><g id="XMLID_1634_"><g><path d="m4.5 30.5h23v-23l-6-6h-17z" fill="#fff176"/></g></g><g id="XMLID_1633_"><g><path d="m21.5 7.5v-6l5.979 6z" fill="#fff"/></g></g></g></g><g id="XMLID_1960_"><g><circle cx="23" cy="17.5" fill="#ead960" r="2"/></g></g><g id="XMLID_1959_"><g><circle cx="9" cy="17.5" fill="#ead960" r="2"/></g></g><g id="XMLID_1887_"><g><path d="m21.5 14.75c.41 0 .75.34.75.75s-.34.75-.75.75-.75-.34-.75-.75.34-.75.75-.75z" fill="#455a64"/></g></g><g id="XMLID_1885_"><g><path d="m10.5 14.75c.41 0 .75.34.75.75s-.34.75-.75.75-.75-.34-.75-.75.34-.75.75-.75z" fill="#455a64"/></g></g></g><g id="XMLID_1337_"><g id="XMLID_1529_"><g><path d="m27.5 31h-23c-.276 0-.5-.224-.5-.5v-29c0-.276.224-.5.5-.5h17c.276 0 .5.224.5.5s-.224.5-.5.5h-16.5v28h22v-22.5c0-.276.224-.5.5-.5s.5.224.5.5v23c0 .276-.224.5-.5.5z" fill="#455a64"/></g></g><g id="XMLID_1524_"><g><path d="m27.479 8h-5.979c-.276 0-.5-.224-.5-.5v-3.5c0-.276.224-.5.5-.5s.5.224.5.5v3h4.274l-5.128-5.147c-.195-.195-.194-.512.001-.707.196-.195.513-.195.707.002l5.979 6c.143.143.185.357.108.544-.078.186-.26.308-.462.308z" fill="#455a64"/></g></g><g id="XMLID_1612_"><g><path d="m17.5 19c-.276 0-.5-.224-.5-.5 0-.552-.449-1-1-1s-1 .448-1 1c0 .276-.224.5-.5.5s-.5-.224-.5-.5c0-1.103.897-2 2-2s2 .897 2 2c0 .276-.224.5-.5.5z" fill="#455a64"/></g></g><g id="XMLID_1873_"><g id="XMLID_1875_"><g><path d="m21.5 16.75c-.689 0-1.25-.561-1.25-1.25s.561-1.25 1.25-1.25 1.25.561 1.25 1.25-.561 1.25-1.25 1.25zm0-1.5c-.133 0-.25.117-.25.25s.117.25.25.25.25-.117.25-.25-.117-.25-.25-.25z" fill="#455a64"/></g></g><g id="XMLID_1874_"><g><path d="m10.5 16.75c-.689 0-1.25-.561-1.25-1.25s.561-1.25 1.25-1.25 1.25.561 1.25 1.25-.561 1.25-1.25 1.25zm0-1.5c-.133 0-.25.117-.25.25s.117.25.25.25.25-.117.25-.25-.117-.25-.25-.25z" fill="#455a64"/></g></g></g></g></g></svg>