<svg viewBox="0 0 24 24" xmlns="http://www.w3.org/2000/svg"><g id="Layer_2" data-name="Layer 2"><path d="m10.69 11.71a.78.78 0 0 0 -.16-.24l-2-2a.75.75 0 0 0 -1.06 1.06l.72.72h-5.19a.75.75 0 0 0 0 1.5h5.19l-.72.72a.75.75 0 0 0 0 1.06.75.75 0 0 0 1.06 0l2-2a.78.78 0 0 0 .16-.24.73.73 0 0 0 0-.58z" fill="#424242"/><path d="m13 20.75h-6a1.76 1.76 0 0 1 -1.75-1.75v-2a.75.75 0 0 1 1.5 0v2a.25.25 0 0 0 .25.25h6a.75.75 0 0 1 0 1.5z" fill="#a5d6a7"/><path d="m6 7.75a.76.76 0 0 1 -.75-.75v-2a1.76 1.76 0 0 1 1.75-1.75h6a.75.75 0 0 1 0 1.5h-6a.25.25 0 0 0 -.25.25v2a.76.76 0 0 1 -.75.75z" fill="#a5d6a7"/><path d="m20.42 4.08-6-1.5a1.75 1.75 0 0 0 -2.17 1.7v15.44a1.74 1.74 0 0 0 1.75 1.75 2 2 0 0 0 .42 0l6-1.5a1.75 1.75 0 0 0 1.33-1.7v-12.49a1.75 1.75 0 0 0 -1.33-1.7z" fill="#66bb6a"/></g></svg>