<svg id="Layer_1" enable-background="new 0 0 512 512" viewBox="0 0 512 512" xmlns="http://www.w3.org/2000/svg"><g><g><path d="m300.792 441.919h-240.267c-27.904 0-50.525-22.62-50.525-50.524v-317.985c0-27.904 22.621-50.525 50.525-50.525h240.267c27.904 0 50.525 22.621 50.525 50.525v317.985c-.001 27.904-22.621 50.524-50.525 50.524z" fill="#fff"/><path d="m241.75 167.801h109.566v162.396h-109.566z" fill="#d2dcfd"/><path d="m390.901 213.801h-95.027v70.397h95.027v42.158l111.099-77.357-111.099-77.356z" fill="#bc9af4"/><path d="m176.563 486.884-130.798-39.926c-21.246-6.486-35.765-26.124-35.765-48.378v-325.088c0-33.967 32.757-58.277 65.187-48.378l130.798 39.926c21.247 6.486 35.765 26.124 35.765 48.378v325.088c0 33.968-32.756 58.278-65.187 48.378z" fill="#fdcb50"/><path d="m72.82 171.643c0-49.097 8.734-96.153 24.732-139.701l-22.365-6.827c-32.43-9.9-65.187 14.41-65.187 48.377v325.088c0 22.253 14.519 41.892 35.765 48.378l130.798 39.926c14.511 4.429 29.087 2.01 40.765-5.059-88.357-74.316-144.508-185.692-144.508-310.182z" fill="#fd8f01"/></g><g><path d="m507.714 240.793-111.1-77.356c-3.054-2.127-7.041-2.383-10.343-.657-3.302 1.724-5.371 5.14-5.371 8.864v32.158h-19.584v-130.392c0-33.374-27.151-60.525-60.524-60.525h-239.173c-13.169-.29-26.119 3.775-37.088 11.895-15.59 11.541-24.531 29.296-24.531 48.712v325.088c0 26.834 17.219 50.119 42.846 57.942l130.797 39.926c5.886 1.796 11.875 2.681 17.808 2.681 12.713 0 25.166-4.062 35.769-11.911 11.91-8.817 19.939-21.26 23.066-35.299h50.506c33.373 0 60.524-27.151 60.524-60.525v-97.197h19.584v32.158c0 3.724 2.069 7.14 5.371 8.864 1.456.761 3.044 1.136 4.628 1.136 2.008 0 4.007-.604 5.715-1.793l111.1-77.356c2.686-1.87 4.286-4.935 4.286-8.207s-1.601-6.336-4.286-8.206zm-275.964 197.714c0 13.011-5.989 24.907-16.431 32.637-10.403 7.701-23.464 9.953-35.837 6.176l-130.797-39.927c-17.158-5.236-28.685-20.834-28.685-38.812v-325.089c0-13.011 5.989-24.907 16.431-32.637 10.403-7.702 23.465-9.954 35.837-6.176l130.798 39.926c17.157 5.237 28.685 20.834 28.685 38.813v325.089zm109.566-47.113c0 22.346-18.179 40.525-40.524 40.525h-49.042v-318.501c0-26.834-17.219-50.119-42.846-57.942l-74.009-22.591h165.896c22.346 0 40.524 18.179 40.524 40.525v130.391h-45.442c-5.522 0-10 4.477-10 10v70.396c0 5.523 4.478 10 10 10h45.442v97.197zm59.584-84.186v-23.01c0-5.523-4.478-10-10-10h-85.026v-50.396h85.026c5.522 0 10-4.477 10-10v-23.01l83.599 58.208z" fill="#052a75"/><g><path d="m196.404 274.783c-5.523 0-10-4.477-10-10v-31.567c0-5.523 4.477-10 10-10s10 4.477 10 10v31.567c0 5.523-4.477 10-10 10z" fill="#fff"/></g></g></g><g/><g/><g/><g/><g/><g/><g/><g/><g/><g/><g/><g/><g/><g/><g/></svg>